<?xml version="1.0" encoding="utf-8"?>
<!-- Generator: Adobe Illustrator 21.0.0, SVG Export Plug-In . SVG Version: 6.00 Build 0)  -->
<svg version="1.1" id="Layer_1" xmlns="http://www.w3.org/2000/svg" xmlns:xlink="http://www.w3.org/1999/xlink" x="0px" y="0px"
	 width="1400px" height="980px" viewBox="0 0 1400 980" style="enable-background:new 0 0 1400 980;" xml:space="preserve">
<style type="text/css">
	.st0{fill:#545353;}
</style>
<g>
	<path class="st0" d="M177.1,108.8h-16.7c-0.6,0-1.3,0.3-1.7,0.7l-15.1,15.1H103l-3.2-8.3l20.6-7.8c1-0.4,1.6-1.4,1.6-2.4
		c-0.1-1.1-0.8-2-1.9-2.2l-28.7-6.3c0,0,0,0,0,0l0,0c-0.1,0-0.3,0-0.4-0.1c0,0-0.1,0-0.1,0c-0.1,0-0.2,0-0.3,0c0,0-0.1,0-0.1,0
		c-0.1,0-0.3,0.1-0.4,0.1c0,0,0,0,0,0c0,0,0,0,0,0c-0.1,0-0.2,0.1-0.4,0.2c0,0-0.1,0-0.1,0.1c-0.1,0.1-0.2,0.1-0.3,0.2
		c0,0,0,0-0.1,0.1c-0.1,0.1-0.2,0.2-0.2,0.3l-17.4,23.7c-0.6,0.9-0.6,2,0,2.9c0.5,0.6,1.2,1,1.9,1c0.3,0,0.6-0.1,0.9-0.2l21-7.9
		l2.5,6.6h-14c-1,0-1.9,0.6-2.3,1.6c-0.4,0.9-0.1,2,0.7,2.7l40.4,35.5v44.8h-11.3c-1.3,0-2.4,1.1-2.4,2.4s1.1,2.4,2.4,2.4h27.4
		c1.3,0,2.4-1.1,2.4-2.4s-1.1-2.4-2.4-2.4h-11.3v-44.8l40.4-35.5c0.8-0.7,1-1.7,0.7-2.7c-0.4-0.9-1.3-1.6-2.3-1.6h-15.9l11-11h15.7
		c1.3,0,2.4-1.1,2.4-2.4C179.5,109.8,178.4,108.8,177.1,108.8z M98,111.8l-1.9-4.9l5.3,3.7L98,111.8z M107,108.4l-5.3-3.6l9.5,2.1
		L107,108.4z M85.9,110.7l-1.6,6.3l-4.2,1.6L85.9,110.7z M89.8,114.9l1.7-6.6l2,5.2L89.8,114.9z M101.3,129.4
		C101.4,129.4,101.4,129.4,101.3,129.4C101.4,129.4,101.4,129.4,101.3,129.4h37.4l-8.3,8.3H99.6l-9.4-8.3H101.3z M125.1,160
		l-20-17.5H145L125.1,160z M159.9,129.4l-9.4,8.3h-13.2l8.3-8.3H159.9z"/>
	<path class="st0" d="M454.4,120.6H439l15.8-15c1-0.9,1-2.4,0.1-3.4c-0.9-1-2.4-1-3.4-0.1L432,120.6h-60.1c-1,0-1.9,0.6-2.3,1.6
		c-0.4,0.9-0.1,2,0.7,2.7l40.4,35.5v44.8h-11.3c-1.3,0-2.4,1.1-2.4,2.4s1.1,2.4,2.4,2.4h27.4c1.3,0,2.4-1.1,2.4-2.4
		s-1.1-2.4-2.4-2.4h-11.3v-44.8l40.4-35.5c0.8-0.7,1-1.7,0.7-2.7C456.3,121.3,455.4,120.6,454.4,120.6z M426.9,125.5l-3.2,3
		c-2.7-0.8-6.1,0.4-8.7,3.2c-0.6,0.6-1.1,1.3-1.5,2h-25.8l-9.4-8.3H426.9z M413.1,156.1l-20-17.5h18.9c0,0.7,0.1,1.4,0.4,2l-3,3.2
		c-0.9,1-0.8,2.5,0.1,3.4c0.5,0.4,1,0.6,1.6,0.6c0.7,0,1.3-0.3,1.8-0.8l3-3.2c0.5,0.1,1,0.2,1.6,0.2c0.6,0,1.2-0.1,1.9-0.2
		c1.8-0.5,3.7-1.6,5.1-3.2c0.6-0.6,1.1-1.3,1.5-2h7L413.1,156.1z M422,133.1c0.2,0,0.4,0.1,0.5,0.1c0.1,0.1,0.2,0.6,0.1,1.2
		c-0.2,1-0.7,2-1.6,2.9c-0.8,0.9-1.8,1.6-2.8,1.8c-0.6,0.2-1,0.1-1.2,0c-0.1-0.1-0.2-0.6-0.1-1.2c0.2-1,0.7-2,1.6-2.9
		C419.9,133.5,421.2,133.1,422,133.1z M438.6,133.7h-11.1c0-0.7-0.1-1.3-0.3-1.9l6.7-6.4H448L438.6,133.7z"/>
	<path class="st0" d="M755.6,103.2h-16.7c-0.6,0-1.3,0.3-1.7,0.7L722.1,119h-41.7c-1.2-8.9-8.8-15.8-18.1-15.8
		c-10.1,0-18.2,8.2-18.2,18.2s8.2,18.2,18.2,18.2c4.4,0,8.7-1.6,12-4.5l26.9,23.6v44.8h-11.3c-1.3,0-2.4,1.1-2.4,2.4
		s1.1,2.4,2.4,2.4h27.4c1.3,0,2.4-1.1,2.4-2.4s-1.1-2.4-2.4-2.4H706v-44.8l40.4-35.5c0.8-0.7,1-1.7,0.7-2.7
		c-0.4-0.9-1.3-1.6-2.3-1.6h-15.9l11-11h15.7c1.3,0,2.4-1.1,2.4-2.4S756.9,103.2,755.6,103.2z M703.6,154.4l-20-17.5h39.9
		L703.6,154.4z M678.1,132l-2.3-2l0,0c0,0,0,0,0,0l-7.1-6.2h48.6L709,132H678.1z M662.3,134.8c-7.4,0-13.4-6-13.4-13.4
		c0-7.4,6-13.4,13.4-13.4c6.6,0,12,4.8,13.2,11h-13.2c-1,0-1.9,0.6-2.3,1.6c-0.4,0.9-0.1,2,0.7,2.7l9.9,8.7
		C668.2,133.7,665.3,134.8,662.3,134.8z M738.4,123.8L729,132h-13.2l8.3-8.3H738.4z"/>
	<g>
		<path class="st0" d="M957.9,193h62c1.2,0,2.3-1,2.4-2.2l6.3-69.7c0.1-0.7-0.2-1.3-0.6-1.8s-1.1-0.8-1.8-0.8h-74.6
			c-0.7,0-1.3,0.3-1.8,0.8c-0.5,0.5-0.7,1.2-0.6,1.8l6.3,69.7C955.6,192,956.7,193,957.9,193z M1005.6,147.6l-6,4.1l-4.1-6l6-4.1
			L1005.6,147.6z M992,149.1l5,7.3c0.4,0.5,0.9,0.9,1.5,1c0.1,0,0.3,0,0.4,0c0.5,0,1-0.1,1.4-0.4l10-6.8c0.4-0.3,0.7-0.7,0.9-1.1h10
			l-2.8,30.5h-59.1l-2.8-30.5H992z M960.1,188.2l-0.3-3.7h58.2l-0.3,3.7H960.1z M1023.6,123.3l-1.9,21h-12.5l-5-7.3
			c-0.8-1.1-2.3-1.4-3.4-0.6l-10,6.8c-0.4,0.3-0.7,0.7-0.9,1.1h-33.8l-1.9-21H1023.6z"/>
		<path class="st0" d="M976.4,170.6l11.3,4.3c0.3,0.1,0.6,0.2,0.9,0.2c1,0,1.9-0.6,2.3-1.6l4.3-11.3c0.2-0.6,0.2-1.3-0.1-1.8
			c-0.3-0.6-0.7-1-1.3-1.3l-11.3-4.3c-0.6-0.2-1.3-0.2-1.8,0.1c-0.6,0.3-1,0.7-1.3,1.3l-4.3,11.3
			C974.5,168.7,975.1,170.1,976.4,170.6z M982.9,160.1l6.8,2.6l-2.6,6.8l-6.8-2.6L982.9,160.1z"/>
	</g>
	<path class="st0" d="M1326.6,103.1h-15.3c-0.9,0-1.8,0.5-2.2,1.4l-9.6,20H1259c-1.2-8.4-8.4-14.9-17.1-14.9
		c-9.5,0-17.3,7.8-17.3,17.3s7.8,17.3,17.3,17.3c1.9,0,3.7-0.3,5.4-0.9c7.4,9.8,18.3,16,30.4,16.7v43.5h-11.3
		c-1.3,0-2.4,1.1-2.4,2.4s1.1,2.4,2.4,2.4h27.4c1.3,0,2.4-1.1,2.4-2.4s-1.1-2.4-2.4-2.4h-11.3V160c17.8-1.1,33-13.8,38.2-32.5
		c0.2-0.7,0.1-1.5-0.4-2.1c-0.5-0.6-1.2-1-1.9-1h-13.7l8-16.6h13.8c1.3,0,2.4-1.1,2.4-2.4S1327.9,103.1,1326.6,103.1z M1250.4,139.2
		c-0.1-0.2-0.2-0.3-0.4-0.5c-1.9-2.8-3.5-6-4.8-9.4h51.9l-4.8,9.9H1250.4z M1241.9,139.4c-6.9,0-12.5-5.6-12.5-12.5
		c0-6.9,5.6-12.5,12.5-12.5c6.1,0,11.1,4.3,12.2,10.1h-12.2c-0.8,0-1.5,0.4-1.9,1c-0.5,0.6-0.6,1.4-0.4,2.1c1.2,4.2,2.8,8,4.9,11.5
		C1243.7,139.3,1242.8,139.4,1241.9,139.4z M1280.2,155.3c-9.9,0-19.1-4.2-25.9-11.2h39.6c0,0,0,0,0,0c0,0,0,0,0,0h12.2
		C1299.3,151.1,1290.2,155.3,1280.2,155.3z M1315.2,129.3c-1.3,3.6-3,6.9-5.1,9.9h-12.4l4.8-9.9H1315.2z"/>
	<path class="st0" d="M1298.2,342.2c9.9,0,17.9-8,17.9-17.9c0-9.9-8-17.9-17.9-17.9c-9,0-16.5,6.7-17.7,15.5h-12.2l-1.7-12.9
		c-0.4-2.9-2.1-5.5-4.6-7c-2.5-1.5-5.6-1.7-8.3-0.7L1239,307c-1.2,0.5-1.9,1.9-1.4,3.1c0.5,1.2,1.9,1.9,3.1,1.4l14.7-5.7
		c1.4-0.5,2.9-0.4,4.1,0.3c1.3,0.7,2.1,2,2.3,3.4l1.6,12.3H1251c-0.8,0-1.5,0.4-2,1c-0.5,0.6-0.6,1.5-0.3,2.2
		c0.1,0.1,3.8,10.7,3.3,21.8c0,0,0,0,0,0v0c-0.2,3.8-0.8,7.7-2.3,11.3c-2.3,5.5-9.4,31,0.8,46.3c4.6,7,12,10.7,22,11.3v29h-10.3
		c-1.3,0-2.4,1.1-2.4,2.4s1.1,2.4,2.4,2.4h25.4c1.3,0,2.4-1.1,2.4-2.4s-1.1-2.4-2.4-2.4h-10.3v-29c10-0.5,17.4-4.3,22-11.3
		c10.2-15.3,3.1-40.9,0.8-46.3c-2.1-5.1-2.6-10.8-2.3-16C1298,342.2,1298.1,342.2,1298.2,342.2z M1298.2,311.3
		c7.2,0,13.1,5.9,13.1,13.1c0,7.2-5.8,13-12.9,13c0.9-6.9,2.8-12.1,2.8-12.2c0.3-0.7,0.2-1.6-0.3-2.2s-1.2-1-2-1h-13.5
		C1286.6,315.9,1291.9,311.3,1298.2,311.3z M1295.6,326.8c-1.1,3.8-2.6,10.4-2.6,17.8h-21.6l-2.4-17.8H1295.6z M1264.1,326.8
		l2.4,17.8h-9.6c0-7.3-1.6-14-2.6-17.8H1264.1z M1295.4,401.9c-4.1,6.1-10.9,9.2-20.4,9.2s-16.3-3.1-20.4-9.2
		c-8.4-12.6-3.2-35-0.4-41.8c1.4-3.5,2.2-7.1,2.6-10.8h36.4c0.3,3.6,1.1,7.3,2.6,10.8C1298.6,366.8,1303.8,389.3,1295.4,401.9z"/>
	<g>
		<path class="st0" d="M987.5,382c1,0,1.9-0.6,2.3-1.6l4.3-11.3c0.2-0.6,0.2-1.3-0.1-1.8c-0.3-0.6-0.7-1-1.3-1.3l-11.3-4.3
			c-0.6-0.2-1.3-0.2-1.8,0.1c-0.6,0.3-1,0.7-1.3,1.3l-4.3,11.3c-0.5,1.2,0.2,2.6,1.4,3.1l11.3,4.3C986.9,382,987.2,382,987.5,382z
			 M979.3,373.9l2.6-6.8l6.8,2.6l-2.6,6.8L979.3,373.9z"/>
		<path class="st0" d="M999.4,382.3c-0.4-0.5-0.9-0.9-1.6-1c-0.6-0.1-1.3,0-1.8,0.4l-9.8,7c-1.1,0.8-1.3,2.3-0.6,3.4l7,9.8
			c0.4,0.5,0.9,0.9,1.6,1c0.1,0,0.3,0,0.4,0c0.5,0,1-0.2,1.4-0.5l9.8-7c1.1-0.8,1.3-2.3,0.6-3.4L999.4,382.3z M995.2,397.2l-4.2-5.9
			l5.9-4.2l4.2,5.9L995.2,397.2z"/>
		<path class="st0" d="M950.1,326.3c0.3,0,0.6-0.1,0.9-0.2l19.9-7.5l2,6.1H966c-0.8,0-1.5,0.4-2,1c-0.5,0.6-0.6,1.5-0.3,2.2
			c0.1,0.1,3.8,10.6,3.3,21.8c0,0,0,0,0,0c0,0,0,0,0,0c-0.2,3.8-0.8,7.7-2.3,11.3c-2.3,5.5-9.4,31,0.8,46.3c4.6,7,12,10.7,22,11.3
			v29h-10.3c-1.3,0-2.4,1.1-2.4,2.4s1.1,2.4,2.4,2.4h25.4c1.3,0,2.4-1.1,2.4-2.4s-1.1-2.4-2.4-2.4h-10.3v-29
			c10-0.5,17.4-4.3,22-11.3c10.2-15.3,3.1-40.9,0.8-46.3c-5.8-13.9,0.9-32.9,1-33.1c0.3-0.7,0.2-1.6-0.3-2.2s-1.2-1-2-1h-9.6
			l1.6-12.3c0.2-1.4,1-2.7,2.3-3.4c1.3-0.7,2.8-0.9,4.1-0.3l14.7,5.7c1.2,0.5,2.6-0.1,3.1-1.4c0.5-1.2-0.1-2.6-1.4-3.1l-14.7-5.7
			c-2.7-1.1-5.8-0.8-8.3,0.7c-2.5,1.5-4.2,4-4.6,7l-1.7,12.9h-21.5l-2.5-7.8l21.7-8.2c1-0.4,1.6-1.4,1.6-2.4c-0.1-1.1-0.8-2-1.9-2.2
			l-28.7-6.3c-0.1,0-0.1,0-0.2,0c0,0-0.1,0-0.1,0c-0.1,0-0.3,0-0.4,0c0,0-0.1,0-0.1,0c-0.1,0-0.2,0-0.3,0.1c0,0,0,0-0.1,0
			c0,0,0,0,0,0c-0.1,0-0.3,0.1-0.4,0.2c0,0,0,0,0,0c-0.1,0.1-0.2,0.1-0.3,0.2c0,0-0.1,0.1-0.1,0.1c-0.1,0.1-0.2,0.1-0.2,0.2
			c0,0-0.1,0.1-0.1,0.1c0,0,0,0,0,0l-17.4,23.7c-0.6,0.9-0.6,2,0,2.9C948.6,326,949.3,326.3,950.1,326.3z M974.3,329.7l5.7,17.8
			h-8.1c0-7.3-1.6-14-2.6-17.8H974.3z M1010.3,404.8c-4.1,6.1-10.9,9.2-20.4,9.2c-9.5,0-16.3-3.1-20.4-9.2
			c-8.4-12.6-3.2-35-0.4-41.8c1.4-3.5,2.2-7.1,2.6-10.8h11.6c0,0,0,0,0,0s0,0,0,0h24.8c0.3,3.6,1.1,7.3,2.6,10.8
			C1013.5,369.8,1018.7,392.2,1010.3,404.8z M1010.6,329.7c-1.1,3.8-2.6,10.4-2.6,17.8h-6.8l2.4-17.8H1010.6z M998.7,329.7
			l-2.4,17.8h-11.2l-5.7-17.8H998.7z M966.5,315.2l1.4-5.6l1.4,4.5L966.5,315.2z M972.1,306.7l6,4.1l-4.2,1.6L972.1,306.7z
			 M983.6,308.7l-5.3-3.6l9.5,2.1L983.6,308.7z M962.6,311l-1.6,6.3l-4.2,1.6L962.6,311z"/>
	</g>
	<g>
		<path class="st0" d="M712.8,313.2c1.3-0.7,2.8-0.9,4.1-0.3l14.7,5.7c1.2,0.5,2.6-0.1,3.1-1.4c0.5-1.2-0.1-2.6-1.4-3.1l-14.7-5.7
			c-2.8-1.1-5.8-0.8-8.3,0.7c-2.5,1.5-4.2,4-4.6,7l-1.2,9.1h-34.9c-1.3,0-2.4,1.1-2.4,2.4v43.3c0,14.5,11.2,26.4,25.4,27.7v39.4
			h-10.3c-1.3,0-2.4,1.1-2.4,2.4s1.1,2.4,2.4,2.4h25.4c1.3,0,2.4-1.1,2.4-2.4s-1.1-2.4-2.4-2.4h-10.3v-39.4
			c14.2-1.2,25.4-13.2,25.4-27.7v-43.3c0-1.3-1.1-2.4-2.4-2.4h-11l1.1-8.4C710.7,315.2,711.5,313.9,712.8,313.2z M703.9,329.9
			l-2.8,20.9h-4.7l0.3-1.1c0.4-1.3-0.4-2.6-1.7-3l-11.6-3.3c-1.3-0.4-2.6,0.4-3,1.7l-1.6,5.7H672v-20.9H703.9z M684.4,348.7l7,2
			l-2,7l-7-2L684.4,348.7z M695,393.7c-12.7,0-23-10.3-23-23v-15.1h5.4l-0.3,1.1c-0.4,1.3,0.4,2.6,1.7,3l11.6,3.3
			c0.2,0.1,0.4,0.1,0.7,0.1c1,0,2-0.7,2.3-1.7l1.6-5.7h23v15.1C718,383.4,707.7,393.7,695,393.7z M718,329.9v20.9h-12l2.8-20.9H718z
			"/>
		<path class="st0" d="M708.6,369.7l-11.3-4.3c-1.2-0.5-2.6,0.2-3.1,1.4l-4.3,11.3c-0.5,1.2,0.2,2.6,1.4,3.1l11.3,4.3
			c0.3,0.1,0.6,0.2,0.9,0.2c1,0,1.9-0.6,2.3-1.6l4.3-11.3C710.5,371.5,709.8,370.1,708.6,369.7z M702,380.1l-6.8-2.6l2.6-6.8
			l6.8,2.6L702,380.1z"/>
	</g>
	<path class="st0" d="M453.1,314.1l-14.7-5.7c-2.8-1.1-5.8-0.8-8.3,0.7c-2.5,1.5-4.2,4-4.6,7l-1.2,9.1h-19l6.2-6.7
		c0.9-0.9,0.9-2.4,0-3.3c-0.4-0.5-0.8-0.9-1.2-1.3c-9.3-8.7-23.8-8.2-32.5,1.1c-4.2,4.5-6.4,10.3-6.2,16.5c0.2,6.1,2.8,11.8,7.3,16
		c0.4,0.4,0.8,0.7,1.3,1.1c0.4,0.4,1,0.5,1.5,0.5c0.6,0,1.3-0.3,1.8-0.8l3.5-3.8v26.2c0,14.5,11.2,26.4,25.4,27.7v39.4h-10.3
		c-1.3,0-2.4,1.1-2.4,2.4s1.1,2.4,2.4,2.4h25.4c1.3,0,2.4-1.1,2.4-2.4s-1.1-2.4-2.4-2.4h-10.3v-39.4c14.2-1.2,25.4-13.2,25.4-27.7
		v-43.3c0-1.3-1.1-2.4-2.4-2.4h-11l1.1-8.4c0.2-1.4,1-2.7,2.3-3.4c1.3-0.7,2.8-0.9,4.1-0.3l14.7,5.7c1.2,0.5,2.6-0.1,3.1-1.4
		C455,316,454.4,314.6,453.1,314.1z M391.9,350.8v-20.9h31.8l-2.8,20.9H391.9z M381.6,343.3c-3.2-3.2-5-7.5-5.1-12.1
		c-0.2-4.8,1.6-9.5,4.9-13c6.7-7.1,17.7-7.7,25-1.4l-7.7,8.2h-9.2c-1.3,0-2.4,1.1-2.4,2.4v10L381.6,343.3z M414.8,393.7
		c-12.7,0-23-10.3-23-23v-15.1h45.9v15.1C437.8,383.4,427.5,393.7,414.8,393.7z M437.8,329.9v20.9h-12l2.8-20.9H437.8z"/>
	<path class="st0" d="M161.1,325.6c0.5-1.2-0.1-2.6-1.4-3.1l-13.3-5.2c-2.6-1-5.4-0.8-7.8,0.6s-3.9,3.8-4.3,6.5l-0.9,6.3h-9.3
		c-1.2-8.5-8.5-15.1-17.4-15.1c-9.7,0-17.6,7.9-17.6,17.6c0,8.9,6.6,16.2,15.1,17.4v81.8c0,1.3,1.1,2.4,2.4,2.4h40.5
		c1.3,0,2.4-1.1,2.4-2.4v-99.2c0-1.3-1.1-2.4-2.4-2.4h-9l0.8-5.7c0.2-1.3,0.9-2.3,2-3c1.1-0.6,2.4-0.7,3.6-0.3L158,327
		C159.3,327.4,160.7,326.8,161.1,325.6z M144.9,420.8h-35.7v-60.6h23.1c0,0,0,0,0,0c0,0,0,0,0,0h12.6V420.8z M109.2,355.3v-19.7
		h23.7l-2.7,19.7H109.2z M94,333.2c0-7,5.7-12.7,12.7-12.7c6.2,0,11.4,4.4,12.5,10.3h-12.5c-1.3,0-2.4,1.1-2.4,2.4v12.5
		C98.5,344.5,94,339.4,94,333.2z M109.2,429.9v-4.3h35.7v4.3H109.2z M144.9,335.6v19.7h-9.8l2.7-19.7H144.9z"/>
	<g>
		<path class="st0" d="M158.2,557.8c0.1-0.2,0.1-0.5,0.1-0.7c0-0.4-0.1-0.8-0.3-1.1c-0.9-10.4-3.7-17.6-3.9-18.1
			c-0.4-0.9-1.3-1.5-2.2-1.5H98.6c-1,0-1.9,0.6-2.2,1.5c-0.2,0.5-3,7.7-3.9,18.1c-0.2,0.3-0.3,0.7-0.3,1.1c0,0.3,0.1,0.5,0.1,0.7
			c-0.6,9.1,0.3,20.3,5.2,31.8c12.3,29,6.9,60.1,6.9,60.5c-0.1,0.7,0.1,1.4,0.5,2c0.5,0.5,1.1,0.9,1.9,0.9h36.9
			c0.7,0,1.4-0.3,1.9-0.9c0.5-0.5,0.7-1.3,0.5-2c-0.1-0.3-5.4-31.5,6.9-60.5C157.9,578.1,158.8,566.9,158.2,557.8z M100.3,541.2
			h49.9c0.7,2.3,2.1,7.2,2.8,13.5H97.5C98.2,548.3,99.6,543.5,100.3,541.2z M109.6,648.1c0.1-1,0.3-2.2,0.4-3.6h30.6
			c0.1,1.4,0.3,2.6,0.4,3.6H109.6z M140.2,639.7h-29.9c0.6-12.1,0-32.3-8.4-51.9c-4.3-10.1-5.2-20-4.8-28.3h56.2
			c0.4,8.2-0.6,18.2-4.8,28.3C140.2,607.4,139.5,627.6,140.2,639.7z"/>
		<path class="st0" d="M134.2,599.2c-0.4-0.5-0.9-0.9-1.6-1c-0.6-0.1-1.3,0-1.8,0.4L122,605c-1.1,0.8-1.3,2.3-0.6,3.4l6.3,8.8
			c0.4,0.5,0.9,0.9,1.6,1c0.1,0,0.3,0,0.4,0c0.5,0,1-0.2,1.4-0.5l8.8-6.3c1.1-0.8,1.3-2.3,0.6-3.4L134.2,599.2z M130.3,612.4
			l-3.5-4.9l4.9-3.5l3.5,4.9L130.3,612.4z"/>
		<path class="st0" d="M125.8,595.3l-0.5-10.8c-0.1-1.3-1.2-2.4-2.5-2.3l-10.8,0.5c-1.3,0.1-2.4,1.2-2.3,2.5l0.5,10.8
			c0.1,1.3,1.1,2.3,2.4,2.3c0,0,0.1,0,0.1,0l10.8-0.5C124.8,597.8,125.9,596.7,125.8,595.3z M114.8,593.5l-0.3-6l6-0.3l0.3,6
			L114.8,593.5z"/>
		<path class="st0" d="M134.5,567.5c-0.9-0.9-2.5-0.9-3.4,0l-7.7,7.7c-0.9,0.9-0.9,2.5,0,3.4l7.7,7.7c0.5,0.5,1.1,0.7,1.7,0.7
			c0.6,0,1.2-0.2,1.7-0.7l7.7-7.7c0.9-0.9,0.9-2.5,0-3.4L134.5,567.5z M132.8,581.2l-4.3-4.3l4.3-4.3l4.3,4.3L132.8,581.2z"/>
	</g>
	<path class="st0" d="M441.6,568.3c-0.1-7.8-0.8-15.3-2.1-22.3c-0.2-1.1-1.2-2-2.4-2h-19c-1.1-8.2-8.1-14.6-16.6-14.6
		c-9.3,0-16.8,7.5-16.8,16.8c0,8.6,5.5,15.3,13.2,16.6c-0.1,1.7-0.2,3.5-0.2,5.2c0,0.1,0,0.2,0,0.3c0,0.1,0,0.1,0,0.2
		c0,0.7,0,1.4,0,2.1c0,29.7,8.3,52.7,19.6,55.5v28.7h-10.6c-1.3,0-2.4,1.1-2.4,2.4c0,1.3,1.1,2.4,2.4,2.4h26.1
		c1.3,0,2.4-1.1,2.4-2.4c0-1.3-1.1-2.4-2.4-2.4H422v-28.7c11.3-2.9,19.6-25.8,19.6-55.5C441.6,569.9,441.6,569.2,441.6,568.3
		C441.6,568.4,441.6,568.4,441.6,568.3C441.6,568.4,441.6,568.3,441.6,568.3z M436.7,566h-34.1c0.2-5.9,0.7-11.6,1.6-17H435
		C436,554.3,436.5,560,436.7,566z M389.5,546.3c0-6.6,5.4-12,12-12c5.8,0,10.7,4.2,11.7,9.7h-11.1c-1.2,0-2.2,0.8-2.4,2
		c-0.7,3.9-1.3,7.9-1.6,12C393,557,389.5,552.4,389.5,546.3z M419.6,621.7c-8.1,0-17.1-20.9-17.2-50.9h34.3
		C436.8,600.8,427.7,621.7,419.6,621.7z"/>
	<g>
		<path class="st0" d="M706.3,605.4c-0.2-0.6-0.6-1.1-1.1-1.5l-8.1-4.5c-1.2-0.7-2.6-0.2-3.3,0.9l-4.5,8.1c-0.3,0.6-0.4,1.2-0.2,1.8
			c0.2,0.6,0.6,1.1,1.1,1.5l8.1,4.5c0.4,0.2,0.8,0.3,1.2,0.3c0.8,0,1.7-0.4,2.1-1.2l4.5-8.1C706.4,606.7,706.5,606,706.3,605.4z
			 M698.5,610.9l-3.9-2.2l2.2-3.9l3.9,2.2L698.5,610.9z"/>
		<path class="st0" d="M669.2,563c0.5,0.6,1.2,1,1.9,1c0.5,0,1-0.2,1.4-0.5l3.8-2.8c-0.4,4.3-0.6,8.7-0.6,13.2
			c0,29.7,8.3,52.7,19.6,55.5v28.7h-10.6c-1.3,0-2.4,1.1-2.4,2.4c0,1.3,1.1,2.4,2.4,2.4h26.1c1.3,0,2.4-1.1,2.4-2.4
			c0-1.3-1.1-2.4-2.4-2.4h-10.6v-28.7c11.3-2.9,19.6-25.8,19.6-55.5c0-8.7-0.7-16.9-2.2-24.6c-0.2-1.1-1.2-2-2.4-2h-5.1l1.8-12.3
			c0.2-1.4,1-2.7,2.3-3.4c1.3-0.7,2.8-0.9,4.1-0.3l14.7,5.7c1.2,0.5,2.6-0.1,3.1-1.4c0.5-1.2-0.1-2.6-1.4-3.1l-14.7-5.7
			c-2.8-1.1-5.8-0.8-8.3,0.7c-2.5,1.5-4.2,4-4.6,6.9l-1.9,12.9h-10.7l1.8-1.3c1.1-0.8,1.3-2.3,0.5-3.4c-5.6-7.6-16.4-9.3-24-3.7
			C665.2,544.6,663.6,555.4,669.2,563z M697.7,625c-7,0-14.8-15.8-16.7-39.6h3l1.8,6.7c0.2,0.6,0.6,1.1,1.1,1.5
			c0.4,0.2,0.8,0.3,1.2,0.3c0.2,0,0.4,0,0.6-0.1l9-2.3c1.3-0.3,2.1-1.7,1.7-2.9l-0.8-3.1h15.8C712.5,609.3,704.7,625,697.7,625z
			 M694.1,587.5l-4.3,1.1l-1.1-4.3l4.3-1.1L694.1,587.5z M713.1,552.3c1.1,6.8,1.7,14.1,1.7,21.8c0,2.3-0.1,4.5-0.2,6.6h-9.4
			l4.1-28.4H713.1z M700.4,580.6h-3.1l-0.3-1c-0.2-0.6-0.6-1.1-1.1-1.5c-0.6-0.3-1.2-0.4-1.8-0.3l-9,2.3c-0.3,0.1-0.5,0.2-0.8,0.4
			h-3.7c-0.1-2.2-0.2-4.4-0.2-6.6c0-7.6,0.6-14.9,1.7-21.8h22.2L700.4,580.6z M675.7,542.9c4.8-3.5,11.4-3,15.6,0.9l-5,3.7h-6.1
			c-1.2,0-2.2,0.8-2.4,2c-0.3,1.6-0.6,3.2-0.8,4.8l-5.2,3.8C669.4,552.8,670.9,546.4,675.7,542.9z"/>
	</g>
	<g>
		<path class="st0" d="M998.1,607.1c-0.6,0.3-1,0.7-1.3,1.3l-4.3,11.3c-0.5,1.2,0.2,2.6,1.4,3.1l11.3,4.3c0.3,0.1,0.6,0.2,0.9,0.2
			c0.3,0,0.7-0.1,1-0.2c0.6-0.3,1-0.7,1.3-1.3l4.3-11.3c0.5-1.2-0.2-2.6-1.4-3.1l-11.3-4.3C999.3,606.8,998.6,606.8,998.1,607.1z
			 M1007.2,615l-2.6,6.8l-6.8-2.6l2.6-6.8L1007.2,615z"/>
		<path class="st0" d="M987.2,610.1l-29-14.9c-0.6-0.3-1.2-0.3-1.8-0.2c-0.6,0.2-1.1,0.6-1.4,1.2c-2.6,5-2.6,10.6-0.7,15.5
			c0,0,0,0.1,0,0.1c0,0,0,0.1,0.1,0.1c1.6,4,4.6,7.4,8.7,9.5c2.7,1.4,5.6,2.1,8.5,2.1c1.5,0,2.9-0.2,4.3-0.5c0,0,0.1,0,0.1,0
			c0,0,0.1,0,0.1,0c5-1.3,9.5-4.6,12.1-9.6C988.9,612.2,988.4,610.7,987.2,610.1z M963.3,615.9c-1.4-1-2.5-2.3-3.4-3.7l6.6-2.7
			L963.3,615.9z M958.4,600.8l7.5,3.8l-7.8,3.1C957.6,605.5,957.7,603.1,958.4,600.8z M967.6,618.1l3.3-6.4l1.7,6.9
			C970.8,618.8,969.2,618.6,967.6,618.1z M977.2,617.5l-2-8.1l7.5,3.8C981.3,615.1,979.4,616.6,977.2,617.5z"/>
		<path class="st0" d="M1033.5,553.1l-14.7-5.7c-2.7-1.1-5.8-0.8-8.3,0.7c-2.5,1.5-4.2,4-4.6,7l-1.7,12.9h-58.9
			c-0.7,0-1.3,0.3-1.8,0.8c-0.5,0.5-0.7,1.2-0.6,1.8l6.3,69.7c0.1,1.2,1.2,2.2,2.4,2.2h62c1.2,0,2.3-1,2.4-2.2l6.3-69.7
			c0.1-0.7-0.2-1.3-0.6-1.8c-0.5-0.5-1.1-0.8-1.8-0.8H1009l1.6-12.3c0.2-1.4,1-2.7,2.3-3.4c1.3-0.7,2.8-0.9,4.1-0.3l14.7,5.7
			c1.2,0.5,2.6-0.1,3.1-1.4C1035.4,555,1034.7,553.6,1033.5,553.1z M1003.5,572.8l-2.1,15.4h-4.8l-4.5-6.6c-0.8-1.1-2.3-1.4-3.4-0.6
			l-10,6.8c-0.2,0.1-0.3,0.3-0.4,0.4h-29.1l-1.4-15.4H1003.5z M1012.1,629.1H953l-3.3-36.1h29.8l5.5,8.1c0.4,0.5,0.9,0.9,1.5,1
			c0.1,0,0.3,0,0.4,0c0.5,0,1-0.1,1.4-0.4l10-6.8c0.6-0.4,1-1.1,1-1.9h16L1012.1,629.1z M993.4,591.9
			C993.4,591.9,993.4,591.9,993.4,591.9l0.2,0.3l-6,4.1l-4.1-6l6-4.1L993.4,591.9z M953.8,637.7l-0.3-3.7h58.2l-0.3,3.7H953.8z
			 M1017.2,572.8l-1.4,15.4h-9.5l2.1-15.4H1017.2z"/>
	</g>
	<path class="st0" d="M1326.2,547.6l-14.7-5.7c-2.7-1.1-5.8-0.8-8.3,0.7c-2.5,1.5-4.2,4-4.6,7l-1.7,12.6h-34.8
		c-1.2-8.9-8.8-15.8-18.1-15.8c-10.1,0-18.2,8.2-18.2,18.2c0,10.1,8.2,18.2,18.2,18.2c1.7,0,3.3-0.2,4.9-0.7
		c0.1,0.2,0.2,0.3,0.3,0.4c5.1,6.8,12.2,12.1,20.5,14.8v3.9c0,6.4,4.6,11.7,10.7,12.8v29.2h-10.3c-1.3,0-2.4,1.1-2.4,2.4
		c0,1.3,1.1,2.4,2.4,2.4h25.4c1.3,0,2.4-1.1,2.4-2.4c0-1.3-1.1-2.4-2.4-2.4h-10.3v-29.2c6.1-1.1,10.7-6.5,10.7-12.8v-3.9
		c8.3-2.7,15.4-8,20.5-14.8c0.1-0.1,0.3-0.3,0.3-0.5c3.6-5,6.2-10.8,7.3-17.1c0.1-0.7-0.1-1.4-0.5-2c-0.5-0.5-1.1-0.9-1.8-0.9h-19.8
		l1.6-11.9c0.2-1.4,1-2.7,2.3-3.4c1.3-0.7,2.8-0.9,4.1-0.3l14.7,5.7c1.2,0.5,2.6-0.1,3.1-1.4C1328.1,549.4,1327.5,548,1326.2,547.6z
		 M1252.4,578.4c-2.4-3.5-4.2-7.4-5.3-11.5h49.2l-1.5,11.5H1252.4z M1230.7,564.5c0-7.4,6-13.4,13.4-13.4c6.6,0,12,4.8,13.2,11
		h-13.2c-0.7,0-1.4,0.3-1.8,0.9c-0.5,0.5-0.7,1.3-0.5,2c0.8,4.6,2.4,8.9,4.5,12.8c-0.7,0.1-1.4,0.2-2.2,0.2
		C1236.7,577.9,1230.7,571.9,1230.7,564.5z M1292.9,593.2c-1,0.3-1.8,1.2-1.8,2.3v5.7c0,4.5-3.7,8.2-8.2,8.2s-8.2-3.7-8.2-8.2v-5.7
		c0-1.1-0.7-2-1.8-2.3c-6.4-1.8-12.1-5.3-16.6-10h53.2C1305,587.9,1299.3,591.4,1292.9,593.2z M1318.7,566.9
		c-1.1,4.2-2.9,8-5.3,11.5h-13.8l1.5-11.5H1318.7z"/>
	<g>
		<path class="st0" d="M153.7,776.3c-0.3-1.1-1.2-1.9-2.3-1.9h-32.9l-2.4-6.3l20.6-7.8c1-0.4,1.6-1.4,1.6-2.4
			c-0.1-1.1-0.8-2-1.9-2.2l-28.7-6.3c-0.1,0-0.3,0-0.4-0.1c0,0,0,0-0.1,0c-0.1,0-0.3,0-0.4,0c0,0,0,0-0.1,0
			c-0.3,0.1-0.6,0.2-0.8,0.3c0,0-0.1,0-0.1,0.1c-0.1,0.1-0.2,0.1-0.3,0.2c0,0,0,0-0.1,0.1c-0.1,0.1-0.2,0.2-0.2,0.3l-17.4,23.7
			c-0.6,0.9-0.6,2,0,2.9c0.5,0.6,1.2,1,1.9,1c0.3,0,0.6-0.1,0.9-0.2l21-7.9l1.8,4.6h-5.6c-1.1,0-2.1,0.8-2.3,1.8L96.7,812
			c-2.4,10-0.3,20.5,6,28.8c5.9,7.8,14.8,12.6,24.4,13.2l0,20h-10.3c-1.3,0-2.4,1.1-2.4,2.4c0,1.3,1.1,2.4,2.4,2.4h12.7h0h12.7
			c1.3,0,2.4-1.1,2.4-2.4c0-1.3-1.1-2.4-2.4-2.4h-10.3l0-20c9.7-0.6,18.5-5.4,24.5-13.2c6.2-8.2,8.4-18.7,6-28.7L153.7,776.3z
			 M114.3,763.7l-1.9-4.9l5.3,3.7L114.3,763.7z M123.2,760.3l-5.3-3.6l9.5,2.1L123.2,760.3z M102.2,762.6l-1.6,6.3l-4.2,1.6
			L102.2,762.6z M106.1,766.8l1.7-6.6l2,5.2L106.1,766.8z M109.6,779.3h7.3c0,0,0,0,0,0c0,0,0,0,0,0h32.7l4.2,17.5h-11.1
			c0,0,0,0,0,0c-0.3-0.6-0.9-1-1.5-1.1l-10.9-2.9c-1.3-0.3-2.6,0.4-2.9,1.7l-0.6,2.3h-21.3L109.6,779.3z M131.3,798l6.2,1.6
			l-1.6,6.2l-6.2-1.6L131.3,798z M152.5,837.9c-5.2,6.8-12.9,11-21.4,11.3c-1.1,0-2.2,0-3.2,0c-8.4-0.4-16.2-4.5-21.4-11.3
			c-5.3-7.1-7.2-16.1-5.1-24.7l2.8-11.6h21.2l-1,3.8c-0.3,1.3,0.4,2.6,1.7,2.9l10.9,2.9c0.2,0.1,0.4,0.1,0.6,0.1
			c0.4,0,0.8-0.1,1.2-0.3c0.6-0.3,1-0.9,1.1-1.5l2.1-7.8h12.8l2.8,11.7C159.7,821.8,157.8,830.8,152.5,837.9z"/>
		<path class="st0" d="M120.8,814.2c-0.7-1.1-2.2-1.5-3.3-0.8l-9.7,5.8c-0.6,0.3-0.9,0.9-1.1,1.5c-0.2,0.6-0.1,1.3,0.3,1.8l5.8,9.7
			c0.3,0.5,0.9,0.9,1.5,1.1c0.2,0,0.4,0.1,0.6,0.1c0.4,0,0.9-0.1,1.2-0.3l9.7-5.8c1.1-0.7,1.5-2.2,0.8-3.3L120.8,814.2z
			 M115.7,827.5l-3.3-5.5l5.5-3.3l3.3,5.5L115.7,827.5z"/>
		<path class="st0" d="M147.9,824.5l-10.9-2.9c-1.3-0.3-2.6,0.4-2.9,1.7l-2.9,10.9c-0.2,0.6-0.1,1.3,0.3,1.8c0.3,0.6,0.9,1,1.5,1.1
			l10.9,2.9c0.2,0.1,0.4,0.1,0.6,0.1c1.1,0,2-0.7,2.3-1.8l2.9-10.9c0.2-0.6,0.1-1.3-0.3-1.8C149.1,825,148.6,824.6,147.9,824.5z
			 M142.8,834.8l-6.2-1.6l1.6-6.2l6.2,1.6L142.8,834.8z"/>
	</g>
	<path class="st0" d="M442.9,758l-14.7-5.7c-2.8-1.1-5.8-0.8-8.3,0.7c-2.5,1.5-4.2,4-4.6,6.9l-1.7,12h-25.2c-0.9,0-1.7,0.5-2.1,1.3
		c-0.5,1-12.8,25.3,6.4,61c8.9,16.5,8.4,25.8,6.4,30.6c-2.2,5.4-6.8,6.9-7,6.9c-1.2,0.3-1.9,1.5-1.7,2.7c0.2,1.2,1.2,2.1,2.4,2.1
		h28.2c1.2,0,2.2-0.9,2.4-2.1c0.2-1.2-0.6-2.3-1.7-2.7c0,0-4.7-1.5-6.9-6.8c-2-4.9-2.6-14.2,6.4-30.7c19.3-35.7,7-60,6.4-61
		c-0.4-0.8-1.2-1.3-2.1-1.3h-6.9l1.6-11.3c0.2-1.4,1-2.7,2.3-3.4c1.3-0.7,2.8-0.9,4.1-0.3l14.7,5.7c1.2,0.5,2.6-0.1,3.1-1.4
		C444.7,759.9,444.1,758.5,442.9,758z M389.9,776.8h22.9l-2,13.9h-23.9C387.4,783.8,389,778.9,389.9,776.8z M416.8,831.9
		c-7.9,14.7-10.1,26.4-6.6,34.9c0.8,2,1.9,3.6,3,4.9h-12.8c1.1-1.3,2.2-2.9,3-4.9c3.6-8.5,1.4-20.2-6.6-34.9
		c-7.8-14.4-10.1-26.9-10.1-36.4h40.1C426.9,805,424.6,817.5,416.8,831.9z M423.8,776.8c0.9,2.2,2.5,7,3,13.9h-11l2-13.9H423.8z"/>
	<g>
		<path class="st0" d="M688.7,783.3v-35.1c0-1.3-1.1-2.4-2.4-2.4h-10.7c-1.3,0-2.4,1.1-2.4,2.4v35.1c-3.1,1.9-10.6,7.2-12.3,15.6
			c0,0.2,0,0.3,0,0.5v73.9c0,5,4.1,9.1,9.1,9.1h22c5,0,9.1-4.1,9.1-9.1v-73.9c0-0.2,0-0.3,0-0.5
			C699.3,790.5,691.8,785.2,688.7,783.3z M683.9,750.6v4.7H678v-4.7H683.9z M696.3,873.4c0,2.4-1.9,4.3-4.3,4.3h-22
			c-2.4,0-4.3-1.9-4.3-4.3v-73.7c1.7-8,10.9-12.7,11-12.8c0.8-0.4,1.3-1.2,1.3-2.2v-24.6h5.9v24.6c0,0.9,0.5,1.7,1.3,2.2
			c0.1,0,9.3,4.8,11,12.8V873.4z"/>
		<path class="st0" d="M668,824.8v25.7c0,1.3,1.1,2.4,2.4,2.4h21.2c1.3,0,2.4-1.1,2.4-2.4v-25.7c0-1.3-1.1-2.4-2.4-2.4h-21.2
			C669,822.4,668,823.4,668,824.8z M672.8,827.2h16.3V848h-16.3V827.2z"/>
		<path class="st0" d="M738.8,811.7h-29.2c-1.3,0-2.4,1.1-2.4,2.4v24.9c0,8.6,6.4,15.7,14.6,16.8v20.8h-4.9c-1.3,0-2.4,1.1-2.4,2.4
			c0,1.3,1.1,2.4,2.4,2.4h14.7c1.3,0,2.4-1.1,2.4-2.4c0-1.3-1.1-2.4-2.4-2.4h-4.9v-20.8c8.3-1.2,14.6-8.3,14.6-16.8v-24.9
			C741.2,812.8,740.1,811.7,738.8,811.7z M736.4,816.5v15H712v-15H736.4z M724.2,851.3c-6.7,0-12.2-5.5-12.2-12.2v-2.7h24.4v2.7
			C736.4,845.8,730.9,851.3,724.2,851.3z"/>
	</g>
	<g>
		<path class="st0" d="M970.8,801.3c-2,3.9-2.3,8.3-1,12.4c0.1,0.3,0.2,0.7,0.4,1c0,0,0,0.1,0,0.1c0,0,0,0.1,0,0.1
			c1.5,3.6,4.1,6.5,7.6,8.2c2.3,1.2,4.8,1.8,7.4,1.8c1.7,0,3.4-0.3,5-0.8c4.1-1.3,7.5-4.2,9.5-8c0.6-1.2,0.1-2.6-1-3.2l-24.6-12.6
			C972.9,799.7,971.4,800.2,970.8,801.3z M978,817.6c-0.8-0.7-1.6-1.5-2.2-2.4l4.3-1.7L978,817.6z M982.3,819.8l2.1-4.1l1.1,4.5
			C984.5,820.2,983.4,820,982.3,819.8z M990.2,819l-1.4-5.7l5.2,2.7C993,817.3,991.7,818.3,990.2,819z M979.5,808.5l-5.4,2.2
			c-0.3-1.6-0.2-3.3,0.2-4.9L979.5,808.5z"/>
		<path class="st0" d="M987.3,839.2l-4.9,10.9c-0.3,0.6-0.3,1.2-0.1,1.8c0.2,0.6,0.7,1.1,1.3,1.3l10.9,4.9c0.3,0.1,0.7,0.2,1,0.2
			c0.9,0,1.8-0.5,2.2-1.4l4.9-10.9c0.5-1.2,0-2.6-1.2-3.2l-10.9-4.9C989.2,837.5,987.8,838,987.3,839.2z M997.2,846.3l-2.9,6.5
			l-6.5-2.9l2.9-6.5L997.2,846.3z"/>
		<path class="st0" d="M1017.1,758l-12.4-4.8c-2.4-0.9-5.1-0.7-7.4,0.6c-2.3,1.3-3.7,3.6-4.1,6.2l-0.9,7h-30.6
			c-1.3,0-2.4,1.1-2.4,2.4v103.8c0,1.3,1.1,2.4,2.4,2.4h45.8c1.3,0,2.4-1.1,2.4-2.4V769.4c0-1.3-1.1-2.4-2.4-2.4h-10.2l0.8-6.3
			c0.2-1.1,0.8-2.1,1.8-2.7s2.1-0.7,3.2-0.3l12.4,4.8c1.2,0.5,2.6-0.1,3.1-1.4C1019,759.9,1018.3,758.5,1017.1,758z M991.6,771.8
			l-1.9,14.5H964v-14.5H991.6z M1005,860.3H964v-26.8l4.9,10.2c0.4,0.9,1.3,1.4,2.2,1.4c0.4,0,0.7-0.1,1-0.2l10.8-5.2
			c1.2-0.6,1.7-2,1.1-3.2l-5.2-10.8c-0.6-1.2-2-1.7-3.2-1.1l-10.8,5.2c-0.4,0.2-0.6,0.4-0.9,0.7v-39.3h40.9V860.3z M969.2,833
			l6.4-3.1l3.1,6.4l-6.4,3.1L969.2,833z M964,870.8v-5.7h40.9v5.7H964z M1005,771.8v14.5h-10.4l1.9-14.5H1005z"/>
	</g>
	<g>
		<path class="st0" d="M1294,787.7c0-0.1,0-0.2,0-0.2c0-0.1,0-0.2,0-0.3c0-0.1,0-0.2,0-0.2c0-0.1-0.1-0.2-0.1-0.3c0,0,0-0.1,0-0.1
			l-8.7-20.1c-0.4-0.9-1.3-1.5-2.2-1.5h-5.4c-1-2.8-3.6-4.8-6.7-4.8h-17.4c-3.1,0-5.7,2-6.7,4.8h-5.4c-1,0-1.8,0.6-2.2,1.5
			l-8.7,20.1c0,0,0,0.1,0,0.1c0,0.1-0.1,0.2-0.1,0.3c0,0.1,0,0.2,0,0.2c0,0.1,0,0.2,0,0.3c0,0.1,0,0.2,0,0.2c0,0,0,0.1,0,0.1
			l13.4,71.4c1,5.2,5.5,8.9,10.7,8.9h15.4c5.2,0,9.8-3.7,10.7-8.9l13.4-71.4C1293.9,787.8,1293.9,787.7,1294,787.7z M1253.3,764.9
			h17.4c1.3,0,2.3,1,2.3,2.3c0,1.3-1,2.3-2.3,2.3h-17.4c-1.3,0-2.3-1-2.3-2.3C1251,766,1252.1,764.9,1253.3,764.9z M1242.8,769.7
			h3.8c1,2.8,3.6,4.8,6.7,4.8h17.4c3.1,0,5.7-2,6.7-4.8h3.8l6.6,15.3h-51.7L1242.8,769.7z M1275.8,858.3c-0.5,2.9-3.1,5-6,5h-15.4
			c-2.9,0-5.4-2.1-6-5l-12.9-68.5h53.2L1275.8,858.3z"/>
		<path class="st0" d="M1323.1,829.9c-0.4-0.7-1.2-1.1-2-1.1h-26.8c-0.8,0-1.6,0.4-2,1.1s-0.5,1.6-0.1,2.3l7.6,15.4l-7.6,15.4
			c-0.4,0.7-0.3,1.6,0.1,2.3s1.2,1.1,2,1.1h26.8c0.8,0,1.6-0.4,2-1.1s0.5-1.6,0.1-2.3l-7.6-15.4l7.6-15.4
			C1323.6,831.5,1323.5,830.6,1323.1,829.9z M1298.2,861.8l5.7-11.7h7.6l5.7,11.7H1298.2z M1311.5,845.3h-7.6l-5.7-11.7h19
			L1311.5,845.3z"/>
	</g>
</g>
</svg>
